HIERARCHY
ROOT Hips
{
  OFFSET -33.9132 29.2015 117.021
  CHANNELS 6 Xposition Yposition Zposition Zrotation Xrotation Yrotation
  JOINT LeftUpLeg
  {
    OFFSET 8.64259 1.95398 -2.38835
    CHANNELS 3 Zrotation Xrotation Yrotation
    JOINT LeftLeg
    {
      OFFSET 43.7702 0 0
      CHANNELS 3 Zrotation Xrotation Yrotation
      JOINT LeftFoot
      {
        OFFSET 40.6238 0 0
        CHANNELS 3 Zrotation Xrotation Yrotation
        JOINT LeftToeBase
        {
          OFFSET 12.7242 0 0
          CHANNELS 3 Zrotation Xrotation Yrotation
          End Site
          {
            OFFSET 0 0 0
          }
        }
      }
    }
  }
  JOINT RightUpLeg
  {
    OFFSET -8.2249 1.95398 -2.59336
    CHANNELS 3 Zrotation Xrotation Yrotation
    JOINT RightLeg
    {
      OFFSET 43.5653 0 0
      CHANNELS 3 Zrotation Xrotation Yrotation
      JOINT RightFoot
      {
        OFFSET 40.6238 0 0
        CHANNELS 3 Zrotation Xrotation Yrotation
        JOINT RightToeBase
        {
          OFFSET 12.7242 0 0
          CHANNELS 3 Zrotation Xrotation Yrotation
          End Site
          {
            OFFSET 0 0 0
          }
        }
      }
    }
  }
  JOINT Spine
  {
    OFFSET 0.165834 0.87714 6.61349
    CHANNELS 3 Zrotation Xrotation Yrotation
    JOINT Spine1
    {
      OFFSET 7.38963 1.71661e-005 0
      CHANNELS 3 Zrotation Xrotation Yrotation
      JOINT Spine2
      {
        OFFSET 11.9445 1.14441e-005 0
        CHANNELS 3 Zrotation Xrotation Yrotation
        JOINT Spine3
        {
          OFFSET 14.7254 4.19617e-005 0
          CHANNELS 3 Zrotation Xrotation Yrotation
          JOINT Spine4
          {
            OFFSET 10.9679 0 0
            CHANNELS 3 Zrotation Xrotation Yrotation
            JOINT RightShoulder
            {
              OFFSET 2.46616 -1.6653 3.69651
              CHANNELS 3 Zrotation Xrotation Yrotation
              JOINT RightArm
              {
                OFFSET 13.0012 0 0
                CHANNELS 3 Zrotation Xrotation Yrotation
                JOINT RightForeArm
                {
                  OFFSET 28.7848 1.62311e-005 0
                  CHANNELS 3 Zrotation Xrotation Yrotation
                  JOINT RightHand
                  {
                    OFFSET 26.5688 1.62095e-005 0
                    CHANNELS 3 Zrotation Xrotation Yrotation
                    End Site
                    {
                      OFFSET 0 0 0
                    }
                  }
                }
              }
            }
            JOINT LeftShoulder
            {
              OFFSET 2.38034 -1.29275 -3.7523
              CHANNELS 3 Zrotation Xrotation Yrotation
              JOINT LeftArm
              {
                OFFSET 16.3182 6.07031e-005 0
                CHANNELS 3 Zrotation Xrotation Yrotation
                JOINT LeftForeArm
                {
                  OFFSET 27.0901 0 0
                  CHANNELS 3 Zrotation Xrotation Yrotation
                  JOINT LeftHand
                  {
                    OFFSET 24.5451 1.51738e-005 0
                    CHANNELS 3 Zrotation Xrotation Yrotation
                    End Site
                    {
                      OFFSET 0 0 0
                    }
                  }
                }
              }
            }
            JOINT Neck
            {
              OFFSET 5.0226 -0.0266342 0
              CHANNELS 3 Zrotation Xrotation Yrotation
              JOINT Head
              {
                OFFSET 6.69364 2.86102e-005 0
                CHANNELS 3 Zrotation Xrotation Yrotation
                End Site
                {
                  OFFSET 0 0 0
                }
              }
            }
          }
        }
      }
    }
  }
}
MOTION
Frames:	7
Frame Time:	0.0416667
35.4618 8.69919 41.4308 5.52049 -11.6949 0.961539 -172.388 -6.92489 96.9389 -21.5686 14.5991 2.56901 85.917 18.5448 -2.3234 18.8465 -8.17491 6.29395 168.479 -9.54028 85.7213 -21.1965 -3.25591 2.02841 80.4889 -13.9236 -0.298827 42.4644 -6.06914 -0.582982 0.16856 5.97208 -90.2541 14.93 0.207338 -0.541587 3.25891 0.183306 -0.550195 -19.2757 0.36052 -0.454253 0.736962 0.360521 -0.454248 95.3719 -11.0272 -102.006 36.5391 -9.05136 74.1246 -49.0578 18.0231 -109.749 -111.584 3.71588 -7.66469 -85.911 -24.9428 79.8765 -7.16546 12.4227 11.1936 31.8643 4.75169 -66.81 81.2414 -16.0438 -18.5581 46.3794 -3.99164 -3.40745 -5.70954 -1.8541 -0.0218648 
35.4324 8.67353 41.4377 5.60104 -11.7684 0.886295 -172.039 -6.82341 97.1073 -21.8685 14.9942 2.33215 85.5245 18.324 -2.05441 18.7589 -8.12907 6.12318 168.472 -9.57776 85.6181 -21.3856 -2.58111 1.98687 80.9875 -13.7361 1.00746 42.1239 -5.86144 -1.12353 0.161213 5.98291 -90.2561 14.9083 0.191872 -0.543197 3.23721 0.167772 -0.551151 -19.2973 0.346254 -0.460421 0.715288 0.346254 -0.460442 95.4257 -10.8458 -101.935 36.1879 -8.12958 74.8919 -51.0385 18.7496 -109.24 -110.692 2.6076 -6.92804 -85.9629 -25.1744 79.831 -6.94996 12.7449 11.1222 31.8127 4.64503 -66.7698 80.4933 -15.8807 -18.6246 43.7315 -4.15943 -4.4968 -2.11609 -1.54137 1.98089 
35.4098 8.66793 41.4095 5.51245 -11.7779 0.804402 -171.896 -6.9922 97.1913 -21.4559 15.1366 2.17788 86.2128 18.6524 -2.60953 17.7134 -9.0095 6.60238 168.453 -9.39627 85.5475 -21.7058 -2.78927 1.97553 80.9409 -13.7248 0.643328 42.2874 -5.95359 -0.942595 0.181683 6.00143 -90.2418 14.8714 0.239572 -0.52134 3.20034 0.216398 -0.531386 -19.3344 0.38518 -0.425243 0.678258 0.385182 -0.425248 95.5399 -10.8951 -101.585 35.7405 -7.24032 75.5864 -52.568 19.4493 -108.942 -109.669 1.45881 -6.15385 -86.0304 -24.6997 79.5589 -6.99746 12.3826 11.2689 31.4017 4.68325 -66.6279 80.789 -16.1597 -18.8773 42.9352 -4.43544 -5.4315 -0.758261 -1.31471 3.38016 
35.4274 8.69637 41.4153 5.64751 -11.7627 0.780271 -172.022 -6.91113 97.0965 -21.5256 15.0685 2.23538 86.0956 18.5807 -2.6199 17.827 -9.05241 6.78835 168.4 -9.35371 85.477 -21.7657 -2.52743 2.01089 81.0806 -13.6506 1.06477 42.2407 -5.95888 -0.687786 0.152466 5.99195 -90.2592 14.8902 0.173125 -0.54659 3.21913 0.148896 -0.553678 -19.3154 0.329384 -0.469299 0.697257 0.329387 -0.46928 95.4856 -10.6972 -101.831 35.6869 -7.11796 76.3364 -53.8561 20.062 -108.69 -109.202 0.591511 -5.53246 -86.0157 -25.3753 79.7776 -6.56911 12.8086 11.3197 31.2568 4.39717 -66.723 80.6748 -16.0008 -18.7699 42.91 -4.28077 -5.24358 -0.917204 -1.27176 3.31088 
35.4097 8.67807 41.4194 5.66577 -11.7662 0.768616 -171.929 -6.9525 97.1544 -21.4817 15.2869 2.18511 86.1254 18.6091 -2.55025 17.9116 -9.04391 6.85854 168.443 -9.36614 85.5051 -21.7693 -2.42646 1.96549 81.0947 -13.6358 1.17807 42.3984 -5.96977 -1.27297 0.141253 5.9859 -90.2629 14.9022 0.149049 -0.550439 3.23109 0.124672 -0.556485 -19.3034 0.307583 -0.480202 0.709237 0.307587 -0.480227 95.4643 -10.708 -101.886 35.4994 -6.65957 77.1019 -54.6198 20.4858 -108.575 -107.983 0.733978 -5.6495 -85.8699 -25.5514 80.1284 -6.83514 13.5519 11.2917 31.9483 4.64736 -66.4587 80.2006 -15.9919 -18.834 43.0948 -4.15978 -4.93106 -1.26257 -1.32339 2.90863 
35.4017 8.66747 41.4177 5.7099 -11.7104 0.793314 -171.996 -6.83071 97.1553 -21.5831 15.3102 2.23095 86.0587 18.5388 -2.60374 17.97 -8.82675 6.54459 168.462 -9.36043 85.5698 -21.7192 -2.53019 1.98171 80.9691 -13.6835 0.781942 42.2829 -5.98055 -0.65968 0.120311 5.96674 -90.3006 14.9402 0.0887729 -0.617631 3.26907 0.0615098 -0.620941 -19.2651 0.270292 -0.562393 0.747562 0.270288 -0.562393 95.4306 -10.3412 -102.155 35.9754 -7.76169 75.7008 -52.6401 19.5331 -108.964 -109.755 2.14438 -6.61927 -86.0701 -25.9112 79.8128 -6.35285 13.0934 11.7224 31.1838 4.3672 -66.784 80.3191 -16.0185 -18.9067 43.1961 -3.84605 -4.45488 -1.47175 -1.27711 2.71777 
35.3787 8.67311 41.4058 5.65233 -11.7646 0.739204 -171.966 -6.94911 97.1268 -21.4665 15.3513 2.19555 85.9686 18.6045 -2.35619 17.9335 -8.64958 6.2036 168.459 -9.34562 85.5257 -21.8137 -2.4647 1.95545 81.041 -13.6906 0.889797 42.4438 -6.0401 -0.779939 0.119013 5.95149 -90.3275 14.9707 0.0727905 -0.669127 3.29958 0.0432802 -0.671675 -19.2344 0.27052 -0.616319 0.778275 0.27052 -0.616322 95.3854 -10.0442 -102.429 35.566 -6.71573 76.7781 -53.8975 20.0973 -108.691 -109.215 0.558133 -5.49721 -86.1466 -26.8534 79.9082 -5.56146 13.4639 11.765 31.2799 4.45109 -66.6604 79.9186 -15.9714 -18.9674 43.0847 -3.45322 -3.77179 -1.49469 -1.26949 2.18045 
